<svg width="33" height="32" viewBox="0 0 33 32" fill="none" xmlns="http://www.w3.org/2000/svg">
<path d="M16.2613 26.3076H0.982422L1.19526 25.7451C2.00608 25.7248 2.54832 25.6589 2.82197 25.5474C3.24766 25.365 3.56185 25.1268 3.76455 24.8329C4.07875 24.3667 4.41321 23.5255 4.76795 22.3092L8.40144 9.76682C8.7055 8.73303 8.85753 7.97288 8.85753 7.48639C8.85753 7.10125 8.71564 6.80226 8.43185 6.58942C8.1582 6.37657 7.63623 6.27015 6.86595 6.27015C6.69365 6.27015 6.55682 6.26509 6.45547 6.25495L6.6379 5.69244H15.0451L14.9235 6.25495C13.9809 6.25495 13.312 6.34617 12.9167 6.5286C12.5214 6.71104 12.192 7.01003 11.9285 7.42558C11.7461 7.69923 11.4471 8.55059 11.0315 9.97966L7.45886 22.3092C7.18521 23.2417 7.04838 23.8903 7.04838 24.2552C7.04838 24.4984 7.18521 24.7316 7.45886 24.9545C7.63116 25.1066 8.02137 25.1826 8.62949 25.1826H10.6211C12.0704 25.1826 13.2208 25.0001 14.0721 24.6353C14.7005 24.3616 15.2782 23.9511 15.8053 23.4038C16.089 23.0998 16.5907 22.3447 17.3103 21.1386L17.7056 20.4545H18.2681L16.2613 26.3076Z" fill="#C3CDCD"/>
<path d="M18.6008 8.35748L16.6244 15.214C17.5062 13.6025 18.2562 12.3913 18.8745 11.5805C19.8373 10.3237 20.7748 9.41155 21.687 8.84398C22.2242 8.51965 22.7867 8.35748 23.3745 8.35748C23.8813 8.35748 24.3019 8.51965 24.6364 8.84398C24.9708 9.1683 25.1381 9.58385 25.1381 10.0906C25.1381 10.5872 25.0215 11.2359 24.7884 12.0366L23.709 15.8981C25.361 12.8069 26.9269 10.6379 28.4067 9.39128C29.2276 8.70208 30.0385 8.35748 30.8391 8.35748C31.3054 8.35748 31.6854 8.51965 31.9794 8.84398C32.2834 9.15817 32.4355 9.64973 32.4355 10.3187C32.4355 10.9065 32.3442 11.5298 32.1618 12.1886L30.4895 18.1025C30.1246 19.3897 29.9422 20.1043 29.9422 20.2462C29.9422 20.3881 29.9878 20.5097 30.079 20.611C30.1398 20.682 30.2209 20.7174 30.3222 20.7174C30.4236 20.7174 30.601 20.6212 30.8543 20.4286C31.4321 19.9826 31.9743 19.3948 32.4811 18.6651L32.9828 18.9843C32.7294 19.3897 32.2784 19.9472 31.6297 20.6566C30.9912 21.3661 30.4439 21.8475 29.9878 22.1009C29.5317 22.3543 29.1111 22.481 28.7259 22.481C28.3712 22.481 28.0722 22.3594 27.829 22.1161C27.5959 21.8729 27.4793 21.5739 27.4793 21.2191C27.4793 20.7327 27.6871 19.7546 28.1026 18.285L29.4861 13.4048C29.8003 12.2798 29.9675 11.6565 29.9878 11.5349C30.0182 11.3423 30.0334 11.1548 30.0334 10.9724C30.0334 10.719 29.9776 10.5214 29.8662 10.3795C29.7445 10.2376 29.6077 10.1666 29.4557 10.1666C29.03 10.1666 28.579 10.3845 28.1026 10.8204C26.704 12.1075 25.3965 13.9116 24.1803 16.2326C23.3796 17.763 22.6296 19.7242 21.9302 22.1161H19.6346L22.2343 12.9184C22.5181 11.9251 22.66 11.2612 22.66 10.9268C22.66 10.6531 22.6042 10.4504 22.4927 10.3187C22.3813 10.1869 22.2444 10.121 22.0823 10.121C21.7478 10.121 21.3931 10.2426 21.0181 10.4859C20.4099 10.8812 19.6245 11.7275 18.6616 13.0248C17.7089 14.3221 16.969 15.5637 16.442 16.7495C16.1886 17.3069 15.5856 19.0958 14.6328 22.1161H12.3828L15.1954 12.2646L15.5602 10.9876C15.6312 10.795 15.6666 10.6531 15.6666 10.5619C15.6666 10.3389 15.5653 10.1413 15.3626 9.96899C15.1599 9.78656 14.9014 9.69534 14.5872 9.69534C14.4555 9.69534 14.0906 9.75615 13.4926 9.87777L13.3558 9.31527L18.6008 8.35748Z" fill="#C3CDCD"/>
</svg>
