<svg width="33" height="32" viewBox="0 0 33 32" fill="none" xmlns="http://www.w3.org/2000/svg">
<path d="M15.9709 26.3079H0.691406L0.904255 25.7454C1.71511 25.7251 2.25736 25.6593 2.53103 25.5478C2.95673 25.3653 3.27093 25.1271 3.47364 24.8332C3.78785 24.367 4.12233 23.5257 4.47707 22.3094L8.11071 9.76655C8.41477 8.73271 8.56681 7.97254 8.56681 7.48603C8.56681 7.10087 8.42491 6.80187 8.14111 6.58902C7.86745 6.37617 7.34546 6.26975 6.57515 6.26975C6.40285 6.26975 6.26602 6.26468 6.16466 6.25455L6.3471 5.69202H14.7546L14.633 6.25455C13.6904 6.25455 13.0214 6.34577 12.6261 6.52821C12.2308 6.71065 11.9014 7.00965 11.6379 7.42521C11.4555 7.69888 11.1565 8.55027 10.7409 9.9794L7.16809 22.3094C6.89443 23.2419 6.7576 23.8906 6.7576 24.2555C6.7576 24.4987 6.89443 24.7318 7.16809 24.9548C7.3404 25.1069 7.73062 25.1829 8.33876 25.1829H10.3304C11.7798 25.1829 12.9302 25.0004 13.7816 24.6356C14.41 24.3619 14.9877 23.9514 15.5148 23.4041C15.7986 23.1 16.3003 22.3449 17.0199 21.1388L17.4152 20.4546H17.9778L15.9709 26.3079Z" fill="#202121"/>
<path d="M18.3081 8.35718L16.3316 15.2139C17.2134 13.6024 17.9635 12.3912 18.5817 11.5803C19.5446 10.3235 20.4822 9.41129 21.3944 8.84369C21.9316 8.51935 22.4941 8.35718 23.082 8.35718C23.5887 8.35718 24.0094 8.51935 24.3439 8.84369C24.6783 9.16803 24.8456 9.58359 24.8456 10.0904C24.8456 10.587 24.729 11.2357 24.4959 12.0364L23.4164 15.8981C25.0685 12.8067 26.6345 10.6377 28.1143 9.39101C28.9353 8.70179 29.7462 8.35718 30.5469 8.35718C31.0131 8.35718 31.3932 8.51935 31.6871 8.84369C31.9912 9.15789 32.1432 9.64947 32.1432 10.3184C32.1432 10.9063 32.052 11.5296 31.8696 12.1885L30.1972 18.1026C29.8323 19.3898 29.6499 20.1044 29.6499 20.2463C29.6499 20.3882 29.6955 20.5098 29.7867 20.6112C29.8475 20.6821 29.9286 20.7176 30.03 20.7176C30.1313 20.7176 30.3087 20.6213 30.5621 20.4287C31.1398 19.9828 31.6821 19.3949 32.1888 18.6651L32.6906 18.9844C32.4372 19.3898 31.9861 19.9473 31.3375 20.6568C30.6989 21.3663 30.1516 21.8477 29.6955 22.1011C29.2394 22.3545 28.8187 22.4812 28.4336 22.4812C28.0788 22.4812 27.7798 22.3596 27.5366 22.1163C27.3035 21.8731 27.1869 21.5741 27.1869 21.2193C27.1869 20.7328 27.3947 19.7547 27.8102 18.2851L29.1938 13.4047C29.508 12.2797 29.6752 11.6563 29.6955 11.5347C29.7259 11.3421 29.7411 11.1546 29.7411 10.9722C29.7411 10.7188 29.6853 10.5211 29.5738 10.3792C29.4522 10.2373 29.3154 10.1664 29.1634 10.1664C28.7377 10.1664 28.2866 10.3843 27.8102 10.8201C26.4115 12.1074 25.104 13.9115 23.8877 16.2326C23.087 17.7631 22.337 19.7243 21.6376 22.1163H19.3419L21.9417 12.9182C22.2255 11.9249 22.3674 11.261 22.3674 10.9266C22.3674 10.6529 22.3117 10.4502 22.2002 10.3184C22.0887 10.1867 21.9518 10.1208 21.7897 10.1208C21.4552 10.1208 21.1004 10.2424 20.7254 10.4857C20.1173 10.881 19.3318 11.7273 18.3689 13.0246C17.4161 14.322 16.6762 15.5636 16.1492 16.7495C15.8958 17.307 15.2927 19.0959 14.34 22.1163H12.0898L14.9025 12.2645L15.2674 10.9874C15.3383 10.7948 15.3738 10.6529 15.3738 10.5617C15.3738 10.3387 15.2724 10.1411 15.0697 9.96875C14.867 9.7863 14.6086 9.69508 14.2943 9.69508C14.1626 9.69508 13.7977 9.7559 13.1997 9.87753L13.0629 9.315L18.3081 8.35718Z" fill="#202121"/>
</svg>
